<svg width="279" height="279" viewBox="0 0 279 279" fill="none" xmlns="http://www.w3.org/2000/svg">
<rect width="279" height="279" rx="21.3702" fill="white"/>
<path d="M17.8574 17.8561H27.5889V27.5877H17.8574V17.8561ZM27.5889 17.8561H37.3205V27.5877H27.5889V17.8561ZM37.3205 17.8561H47.052V27.5877H37.3205V17.8561ZM47.052 17.8561H56.7835V27.5877H47.052V17.8561ZM56.7835 17.8561H66.515V27.5877H56.7835V17.8561ZM66.515 17.8561H76.2465V27.5877H66.515V17.8561ZM76.2465 17.8561H85.9781V27.5877H76.2465V17.8561ZM124.904 17.8561H134.636V27.5877H124.904V17.8561ZM154.099 17.8561H163.83V27.5877H154.099V17.8561ZM163.83 17.8561H173.562V27.5877H163.83V17.8561ZM173.562 17.8561H183.293V27.5877H173.562V17.8561ZM193.025 17.8561H202.756V27.5877H193.025V17.8561ZM202.756 17.8561H212.488V27.5877H202.756V17.8561ZM212.488 17.8561H222.219V27.5877H212.488V17.8561ZM222.219 17.8561H231.951V27.5877H222.219V17.8561ZM231.951 17.8561H241.682V27.5877H231.951V17.8561ZM241.682 17.8561H251.414V27.5877H241.682V17.8561ZM251.414 17.8561H261.145V27.5877H251.414V17.8561ZM17.8574 27.5877H27.5889V37.3192H17.8574V27.5877ZM76.2465 27.5877H85.9781V37.3192H76.2465V27.5877ZM105.441 27.5877H115.173V37.3192H105.441V27.5877ZM144.367 27.5877H154.099V37.3192H144.367V27.5877ZM154.099 27.5877H163.83V37.3192H154.099V27.5877ZM173.562 27.5877H183.293V37.3192H173.562V27.5877ZM193.025 27.5877H202.756V37.3192H193.025V27.5877ZM251.414 27.5877H261.145V37.3192H251.414V27.5877ZM17.8574 37.3192H27.5889V47.0507H17.8574V37.3192ZM37.3205 37.3192H47.052V47.0507H37.3205V37.3192ZM47.052 37.3192H56.7835V47.0507H47.052V37.3192ZM56.7835 37.3192H66.515V47.0507H56.7835V37.3192ZM76.2465 37.3192H85.9781V47.0507H76.2465V37.3192ZM105.441 37.3192H115.173V47.0507H105.441V37.3192ZM115.173 37.3192H124.904V47.0507H115.173V37.3192ZM134.636 37.3192H144.367V47.0507H134.636V37.3192ZM154.099 37.3192H163.83V47.0507H154.099V37.3192ZM163.83 37.3192H173.562V47.0507H163.83V37.3192ZM193.025 37.3192H202.756V47.0507H193.025V37.3192ZM212.488 37.3192H222.219V47.0507H212.488V37.3192ZM222.219 37.3192H231.951V47.0507H222.219V37.3192ZM231.951 37.3192H241.682V47.0507H231.951V37.3192ZM251.414 37.3192H261.145V47.0507H251.414V37.3192ZM17.8574 47.0507H27.5889V56.7822H17.8574V47.0507ZM37.3205 47.0507H47.052V56.7822H37.3205V47.0507ZM47.052 47.0507H56.7835V56.7822H47.052V47.0507ZM56.7835 47.0507H66.515V56.7822H56.7835V47.0507ZM76.2465 47.0507H85.9781V56.7822H76.2465V47.0507ZM95.7096 47.0507H105.441V56.7822H95.7096V47.0507ZM105.441 47.0507H115.173V56.7822H105.441V47.0507ZM134.636 47.0507H144.367V56.7822H134.636V47.0507ZM154.099 47.0507H163.83V56.7822H154.099V47.0507ZM163.83 47.0507H173.562V56.7822H163.83V47.0507ZM193.025 47.0507H202.756V56.7822H193.025V47.0507ZM212.488 47.0507H222.219V56.7822H212.488V47.0507ZM222.219 47.0507H231.951V56.7822H222.219V47.0507ZM231.951 47.0507H241.682V56.7822H231.951V47.0507ZM251.414 47.0507H261.145V56.7822H251.414V47.0507ZM17.8574 56.7822H27.5889V66.5137H17.8574V56.7822ZM37.3205 56.7822H47.052V66.5137H37.3205V56.7822ZM47.052 56.7822H56.7835V66.5137H47.052V56.7822ZM56.7835 56.7822H66.515V66.5137H56.7835V56.7822ZM76.2465 56.7822H85.9781V66.5137H76.2465V56.7822ZM115.173 56.7822H124.904V66.5137H115.173V56.7822ZM124.904 56.7822H134.636V66.5137H124.904V56.7822ZM134.636 56.7822H144.367V66.5137H134.636V56.7822ZM144.367 56.7822H154.099V66.5137H144.367V56.7822ZM154.099 56.7822H163.83V66.5137H154.099V56.7822ZM193.025 56.7822H202.756V66.5137H193.025V56.7822ZM212.488 56.7822H222.219V66.5137H212.488V56.7822ZM222.219 56.7822H231.951V66.5137H222.219V56.7822ZM231.951 56.7822H241.682V66.5137H231.951V56.7822ZM251.414 56.7822H261.145V66.5137H251.414V56.7822ZM17.8574 66.5137H27.5889V76.2453H17.8574V66.5137ZM76.2465 66.5137H85.9781V76.2453H76.2465V66.5137ZM95.7096 66.5137H105.441V76.2453H95.7096V66.5137ZM124.904 66.5137H134.636V76.2453H124.904V66.5137ZM173.562 66.5137H183.293V76.2453H173.562V66.5137ZM193.025 66.5137H202.756V76.2453H193.025V66.5137ZM251.414 66.5137H261.145V76.2453H251.414V66.5137ZM17.8574 76.2453H27.5889V85.9768H17.8574V76.2453ZM27.5889 76.2453H37.3205V85.9768H27.5889V76.2453ZM37.3205 76.2453H47.052V85.9768H37.3205V76.2453ZM47.052 76.2453H56.7835V85.9768H47.052V76.2453ZM56.7835 76.2453H66.515V85.9768H56.7835V76.2453ZM66.515 76.2453H76.2465V85.9768H66.515V76.2453ZM76.2465 76.2453H85.9781V85.9768H76.2465V76.2453ZM95.7096 76.2453H105.441V85.9768H95.7096V76.2453ZM115.173 76.2453H124.904V85.9768H115.173V76.2453ZM134.636 76.2453H144.367V85.9768H134.636V76.2453ZM154.099 76.2453H163.83V85.9768H154.099V76.2453ZM173.562 76.2453H183.293V85.9768H173.562V76.2453ZM193.025 76.2453H202.756V85.9768H193.025V76.2453ZM202.756 76.2453H212.488V85.9768H202.756V76.2453ZM212.488 76.2453H222.219V85.9768H212.488V76.2453ZM222.219 76.2453H231.951V85.9768H222.219V76.2453ZM231.951 76.2453H241.682V85.9768H231.951V76.2453ZM241.682 76.2453H251.414V85.9768H241.682V76.2453ZM251.414 76.2453H261.145V85.9768H251.414V76.2453ZM95.7096 85.9768H105.441V95.7083H95.7096V85.9768ZM105.441 85.9768H115.173V95.7083H105.441V85.9768ZM115.173 85.9768H124.904V95.7083H115.173V85.9768ZM154.099 85.9768H163.83V95.7083H154.099V85.9768ZM163.83 85.9768H173.562V95.7083H163.83V85.9768ZM173.562 85.9768H183.293V95.7083H173.562V85.9768ZM27.5889 95.7083H37.3205V105.44H27.5889V95.7083ZM37.3205 95.7083H47.052V105.44H37.3205V95.7083ZM76.2465 95.7083H85.9781V105.44H76.2465V95.7083ZM144.367 95.7083H154.099V105.44H144.367V95.7083ZM154.099 95.7083H163.83V105.44H154.099V95.7083ZM173.562 95.7083H183.293V105.44H173.562V95.7083ZM193.025 95.7083H202.756V105.44H193.025V95.7083ZM202.756 95.7083H212.488V105.44H202.756V95.7083ZM222.219 95.7083H231.951V105.44H222.219V95.7083ZM27.5889 105.44H37.3205V115.171H27.5889V105.44ZM37.3205 105.44H47.052V115.171H37.3205V105.44ZM56.7835 105.44H66.515V115.171H56.7835V105.44ZM85.9781 105.44H95.7096V115.171H85.9781V105.44ZM115.173 105.44H124.904V115.171H115.173V105.44ZM124.904 105.44H134.636V115.171H124.904V105.44ZM134.636 105.44H144.367V115.171H134.636V105.44ZM144.367 105.44H154.099V115.171H144.367V105.44ZM154.099 105.44H163.83V115.171H154.099V105.44ZM163.83 105.44H173.562V115.171H163.83V105.44ZM173.562 105.44H183.293V115.171H173.562V105.44ZM193.025 105.44H202.756V115.171H193.025V105.44ZM202.756 105.44H212.488V115.171H202.756V105.44ZM222.219 105.44H231.951V115.171H222.219V105.44ZM241.682 105.44H251.414V115.171H241.682V105.44ZM251.414 105.44H261.145V115.171H251.414V105.44ZM76.2465 115.171H85.9781V124.903H76.2465V115.171ZM124.904 115.171H134.636V124.903H124.904V115.171ZM163.83 115.171H173.562V124.903H163.83V115.171ZM183.293 115.171H193.025V124.903H183.293V115.171ZM202.756 115.171H212.488V124.903H202.756V115.171ZM222.219 115.171H231.951V124.903H222.219V115.171ZM231.951 115.171H241.682V124.903H231.951V115.171ZM251.414 115.171H261.145V124.903H251.414V115.171ZM17.8574 124.903H27.5889V134.634H17.8574V124.903ZM27.5889 124.903H37.3205V134.634H27.5889V124.903ZM56.7835 124.903H66.515V134.634H56.7835V124.903ZM85.9781 124.903H95.7096V134.634H85.9781V124.903ZM105.441 124.903H115.173V134.634H105.441V124.903ZM115.173 124.903H124.904V134.634H115.173V124.903ZM144.367 124.903H154.099V134.634H144.367V124.903ZM163.83 124.903H173.562V134.634H163.83V124.903ZM183.293 124.903H193.025V134.634H183.293V124.903ZM202.756 124.903H212.488V134.634H202.756V124.903ZM222.219 124.903H231.951V134.634H222.219V124.903ZM17.8574 134.634H27.5889V144.366H17.8574V134.634ZM27.5889 134.634H37.3205V144.366H27.5889V134.634ZM47.052 134.634H56.7835V144.366H47.052V134.634ZM76.2465 134.634H85.9781V144.366H76.2465V134.634ZM85.9781 134.634H95.7096V144.366H85.9781V134.634ZM95.7096 134.634H105.441V144.366H95.7096V134.634ZM105.441 134.634H115.173V144.366H105.441V134.634ZM115.173 134.634H124.904V144.366H115.173V134.634ZM144.367 134.634H154.099V144.366H144.367V134.634ZM163.83 134.634H173.562V144.366H163.83V134.634ZM173.562 134.634H183.293V144.366H173.562V134.634ZM193.025 134.634H202.756V144.366H193.025V134.634ZM202.756 134.634H212.488V144.366H202.756V134.634ZM251.414 134.634H261.145V144.366H251.414V134.634ZM37.3205 144.366H47.052V154.097H37.3205V144.366ZM47.052 144.366H56.7835V154.097H47.052V144.366ZM56.7835 144.366H66.515V154.097H56.7835V144.366ZM115.173 144.366H124.904V154.097H115.173V144.366ZM124.904 144.366H134.636V154.097H124.904V144.366ZM134.636 144.366H144.367V154.097H134.636V144.366ZM163.83 144.366H173.562V154.097H163.83V144.366ZM173.562 144.366H183.293V154.097H173.562V144.366ZM193.025 144.366H202.756V154.097H193.025V144.366ZM202.756 144.366H212.488V154.097H202.756V144.366ZM241.682 144.366H251.414V154.097H241.682V144.366ZM251.414 144.366H261.145V154.097H251.414V144.366ZM17.8574 154.097H27.5889V163.829H17.8574V154.097ZM27.5889 154.097H37.3205V163.829H27.5889V154.097ZM47.052 154.097H56.7835V163.829H47.052V154.097ZM66.515 154.097H76.2465V163.829H66.515V154.097ZM76.2465 154.097H85.9781V163.829H76.2465V154.097ZM95.7096 154.097H105.441V163.829H95.7096V154.097ZM105.441 154.097H115.173V163.829H105.441V154.097ZM115.173 154.097H124.904V163.829H115.173V154.097ZM134.636 154.097H144.367V163.829H134.636V154.097ZM163.83 154.097H173.562V163.829H163.83V154.097ZM173.562 154.097H183.293V163.829H173.562V154.097ZM193.025 154.097H202.756V163.829H193.025V154.097ZM222.219 154.097H231.951V163.829H222.219V154.097ZM231.951 154.097H241.682V163.829H231.951V154.097ZM251.414 154.097H261.145V163.829H251.414V154.097ZM37.3205 163.829H47.052V173.56H37.3205V163.829ZM47.052 163.829H56.7835V173.56H47.052V163.829ZM56.7835 163.829H66.515V173.56H56.7835V163.829ZM85.9781 163.829H95.7096V173.56H85.9781V163.829ZM115.173 163.829H124.904V173.56H115.173V163.829ZM154.099 163.829H163.83V173.56H154.099V163.829ZM163.83 163.829H173.562V173.56H163.83V163.829ZM173.562 163.829H183.293V173.56H173.562V163.829ZM183.293 163.829H193.025V173.56H183.293V163.829ZM193.025 163.829H202.756V173.56H193.025V163.829ZM202.756 163.829H212.488V173.56H202.756V163.829ZM212.488 163.829H222.219V173.56H212.488V163.829ZM222.219 163.829H231.951V173.56H222.219V163.829ZM17.8574 173.56H27.5889V183.292H17.8574V173.56ZM27.5889 173.56H37.3205V183.292H27.5889V173.56ZM37.3205 173.56H47.052V183.292H37.3205V173.56ZM56.7835 173.56H66.515V183.292H56.7835V173.56ZM76.2465 173.56H85.9781V183.292H76.2465V173.56ZM95.7096 173.56H105.441V183.292H95.7096V173.56ZM124.904 173.56H134.636V183.292H124.904V173.56ZM173.562 173.56H183.293V183.292H173.562V173.56ZM183.293 173.56H193.025V183.292H183.293V173.56ZM193.025 173.56H202.756V183.292H193.025V173.56ZM202.756 173.56H212.488V183.292H202.756V173.56ZM212.488 173.56H222.219V183.292H212.488V173.56ZM241.682 173.56H251.414V183.292H241.682V173.56ZM95.7096 183.292H105.441V193.023H95.7096V183.292ZM105.441 183.292H115.173V193.023H105.441V183.292ZM115.173 183.292H124.904V193.023H115.173V183.292ZM124.904 183.292H134.636V193.023H124.904V183.292ZM144.367 183.292H154.099V193.023H144.367V183.292ZM154.099 183.292H163.83V193.023H154.099V183.292ZM173.562 183.292H183.293V193.023H173.562V183.292ZM212.488 183.292H222.219V193.023H212.488V183.292ZM251.414 183.292H261.145V193.023H251.414V183.292ZM17.8574 193.023H27.5889V202.755H17.8574V193.023ZM27.5889 193.023H37.3205V202.755H27.5889V193.023ZM37.3205 193.023H47.052V202.755H37.3205V193.023ZM47.052 193.023H56.7835V202.755H47.052V193.023ZM56.7835 193.023H66.515V202.755H56.7835V193.023ZM66.515 193.023H76.2465V202.755H66.515V193.023ZM76.2465 193.023H85.9781V202.755H76.2465V193.023ZM115.173 193.023H124.904V202.755H115.173V193.023ZM124.904 193.023H134.636V202.755H124.904V193.023ZM154.099 193.023H163.83V202.755H154.099V193.023ZM173.562 193.023H183.293V202.755H173.562V193.023ZM193.025 193.023H202.756V202.755H193.025V193.023ZM212.488 193.023H222.219V202.755H212.488V193.023ZM251.414 193.023H261.145V202.755H251.414V193.023ZM17.8574 202.755H27.5889V212.487H17.8574V202.755ZM76.2465 202.755H85.9781V212.487H76.2465V202.755ZM105.441 202.755H115.173V212.487H105.441V202.755ZM115.173 202.755H124.904V212.487H115.173V202.755ZM134.636 202.755H144.367V212.487H134.636V202.755ZM144.367 202.755H154.099V212.487H144.367V202.755ZM173.562 202.755H183.293V212.487H173.562V202.755ZM212.488 202.755H222.219V212.487H212.488V202.755ZM241.682 202.755H251.414V212.487H241.682V202.755ZM17.8574 212.487H27.5889V222.218H17.8574V212.487ZM37.3205 212.487H47.052V222.218H37.3205V212.487ZM47.052 212.487H56.7835V222.218H47.052V212.487ZM56.7835 212.487H66.515V222.218H56.7835V212.487ZM76.2465 212.487H85.9781V222.218H76.2465V212.487ZM105.441 212.487H115.173V222.218H105.441V212.487ZM115.173 212.487H124.904V222.218H115.173V212.487ZM154.099 212.487H163.83V222.218H154.099V212.487ZM163.83 212.487H173.562V222.218H163.83V212.487ZM173.562 212.487H183.293V222.218H173.562V212.487ZM183.293 212.487H193.025V222.218H183.293V212.487ZM193.025 212.487H202.756V222.218H193.025V212.487ZM202.756 212.487H212.488V222.218H202.756V212.487ZM212.488 212.487H222.219V222.218H212.488V212.487ZM241.682 212.487H251.414V222.218H241.682V212.487ZM251.414 212.487H261.145V222.218H251.414V212.487ZM17.8574 222.218H27.5889V231.95H17.8574V222.218ZM37.3205 222.218H47.052V231.95H37.3205V222.218ZM47.052 222.218H56.7835V231.95H47.052V222.218ZM56.7835 222.218H66.515V231.95H56.7835V222.218ZM76.2465 222.218H85.9781V231.95H76.2465V222.218ZM105.441 222.218H115.173V231.95H105.441V222.218ZM115.173 222.218H124.904V231.95H115.173V222.218ZM124.904 222.218H134.636V231.95H124.904V222.218ZM134.636 222.218H144.367V231.95H134.636V222.218ZM163.83 222.218H173.562V231.95H163.83V222.218ZM183.293 222.218H193.025V231.95H183.293V222.218ZM212.488 222.218H222.219V231.95H212.488V222.218ZM231.951 222.218H241.682V231.95H231.951V222.218ZM241.682 222.218H251.414V231.95H241.682V222.218ZM17.8574 231.95H27.5889V241.681H17.8574V231.95ZM37.3205 231.95H47.052V241.681H37.3205V231.95ZM47.052 231.95H56.7835V241.681H47.052V231.95ZM56.7835 231.95H66.515V241.681H56.7835V231.95ZM76.2465 231.95H85.9781V241.681H76.2465V231.95ZM95.7096 231.95H105.441V241.681H95.7096V231.95ZM144.367 231.95H154.099V241.681H144.367V231.95ZM154.099 231.95H163.83V241.681H154.099V231.95ZM163.83 231.95H173.562V241.681H163.83V231.95ZM173.562 231.95H183.293V241.681H173.562V231.95ZM183.293 231.95H193.025V241.681H183.293V231.95ZM202.756 231.95H212.488V241.681H202.756V231.95ZM212.488 231.95H222.219V241.681H212.488V231.95ZM222.219 231.95H231.951V241.681H222.219V231.95ZM241.682 231.95H251.414V241.681H241.682V231.95ZM251.414 231.95H261.145V241.681H251.414V231.95ZM17.8574 241.681H27.5889V251.413H17.8574V241.681ZM76.2465 241.681H85.9781V251.413H76.2465V241.681ZM95.7096 241.681H105.441V251.413H95.7096V241.681ZM105.441 241.681H115.173V251.413H105.441V241.681ZM115.173 241.681H124.904V251.413H115.173V241.681ZM144.367 241.681H154.099V251.413H144.367V241.681ZM173.562 241.681H183.293V251.413H173.562V241.681ZM183.293 241.681H193.025V251.413H183.293V241.681ZM193.025 241.681H202.756V251.413H193.025V241.681ZM202.756 241.681H212.488V251.413H202.756V241.681ZM212.488 241.681H222.219V251.413H212.488V241.681ZM17.8574 251.413H27.5889V261.144H17.8574V251.413ZM27.5889 251.413H37.3205V261.144H27.5889V251.413ZM37.3205 251.413H47.052V261.144H37.3205V251.413ZM47.052 251.413H56.7835V261.144H47.052V251.413ZM56.7835 251.413H66.515V261.144H56.7835V251.413ZM66.515 251.413H76.2465V261.144H66.515V251.413ZM76.2465 251.413H85.9781V261.144H76.2465V251.413ZM115.173 251.413H124.904V261.144H115.173V251.413ZM134.636 251.413H144.367V261.144H134.636V251.413ZM173.562 251.413H183.293V261.144H173.562V251.413ZM193.025 251.413H202.756V261.144H193.025V251.413ZM222.219 251.413H231.951V261.144H222.219V251.413ZM251.414 251.413H261.145V261.144H251.414V251.413Z" fill="black"/>
</svg>
